<?xml version="1.0" encoding="utf-8"?>
<!-- Generator: Adobe Illustrator 24.1.0, SVG Export Plug-In . SVG Version: 6.00 Build 0)  -->
<svg version="1.1" id="Capa_1" xmlns="http://www.w3.org/2000/svg" xmlns:xlink="http://www.w3.org/1999/xlink" x="0px" y="0px"
	 viewBox="0 0 1000 1000" style="enable-background:new 0 0 1000 1000;" xml:space="preserve">
<style type="text/css">
	.st0{fill:#EA9C47;stroke:#000000;stroke-width:14.9236;stroke-miterlimit:10;}
	.st1{fill:#EA9C47;}
	.st2{display:none;fill:#EA9C47;}
	.st3{fill:#EFC092;}
	.st4{fill:#CE8741;}
	.st5{fill:none;stroke:#000000;stroke-width:1.6582;stroke-miterlimit:10;}
	.st6{fill:#5CA6BF;}
	.st7{fill:#61BFD8;}
	.st8{fill:#F2D6B6;}
</style>
<g>
	<path class="st0" d="M308.5,356.8c0,0,20.3,6,15.5,27.4c-4.8,21.5-4.8,36.9-2.4,46.5c2.4,9.5,3.6,41.7,0,58.4s8.3,75.1,8.3,94.1
		c0,19.1,0,52.4-1.2,63.2c-1.2,10.7-3.6,28.6-1.2,32.2c0,0-22,16.1-29.8,16.7c-7.1,0.5-23.8,9.5-35.8,10.7
		c-11.9,1.2-47.1,12.5-50.6,22c-3.6,9.5-6,13.1,1.2,16.7s20.3,0,22.6,2.4c2.4,2.4,13.1,3.6,19.1-1.2c6-4.8,31-14.3,44.1-14.3
		s15.5-10.7,26.2-9.5s3.6,47.7-19.1,52.4c-14.3,7.2-23.8,3.6-31,7.2c-7.2,3.6-20.3,6-25,7.2c-4.8,1.2-11.9,6-15.5,6
		c-3.6,0-15.5,1.2-19.1,4.8c-3.6,3.6-10.7,11.9-9.5,17.9c1.2,6,6,19.1,14.3,23.8s2.4,11.9,6,14.3c3.6,2.4,9.5,8.3,16.7,9.5
		c7.2,1.2,41.7,4.8,54.8-8.3c13.1-13.1,52.4-50.1,62-65.5c9.5-15.5,27.4-4.8,39.3-1.2s26.2,1.2,40.5-1.2c14.3-2.4,29.8,8.3,50.1,4.8
		c20.3-3.6,23.8,7.1,23.8,7.1s1.2,23.8,3.6,32.2c2.4,8.3-8.3,19.1-8.3,28.6s6,31-4.8,48.9c-10.7,17.9-21.5,27.4-20.3,36.9s6,6,6,6
		s0,7.2,13.1,6c0,0,3.6,2.4,9.5,2.4c6,0,14.3-4.8,14.3-4.8s3.6,4.8,9.5,0c6-4.8,14.3-11.9,23.8-13.1c9.5-1.2,6-34.6,9.5-40.5
		c3.6-6,2.4-20.3,9.5-28.6s-9.5-19.1-4.8-44.1c4.8-25,14.3-41.7,28.6-46.5c14.3-4.8,64.4-33.4,71.5-38.1
		c7.2-4.8,51.2-35.8,57.2-44.1s97.7-100.1,50.1-191.9S757.2,405,707.1,352.6c0,0-35.6-32.8-54.8-45.3
		c-20.3-13.1-34.8-38.4-38.1-47.7c-4.8-13.1-8.3-17.9-14.3-25s-2.4-6-10.7-19.1c-6.8-10.7-9.5-16.7-19.1-26.2
		c-8.3-8.3-23.8-27.4-42.9-27.4c-19.1,0-44.1-6-72.7-8.3c-27.3-2.3-31-4.8-51.2-4.8s-20.3,0-20.3,0s-14.3-14.3-29.8-9.5
		c-15.5,4.8-11.9,27.4-11.9,27.4s-33.4,27.4-40.5,54.8s-1.2,48.9-9.5,57.2s-41.7,32.2-36.9,47.7
		C259.1,341.9,274.6,359.7,308.5,356.8z"/>
	<path class="st1" d="M308.5,356.8c0,0,20.3,6,15.5,27.4c-4.8,21.5-4.8,36.9-2.4,46.5c2.4,9.5,3.6,41.7,0,58.4s8.3,75.1,8.3,94.1
		c0,19.1,0,52.4-1.2,63.2c-1.2,10.7-3.6,28.6-1.2,32.2c0,0-22,16.1-29.8,16.7c-7.1,0.5-23.8,9.5-35.8,10.7
		c-11.9,1.2-47.1,12.5-50.6,22c-3.6,9.5-6,13.1,1.2,16.7s20.3,0,22.6,2.4c2.4,2.4,13.1,3.6,19.1-1.2c6-4.8,31-14.3,44.1-14.3
		s15.5-10.7,26.2-9.5s3.6,47.7-19.1,52.4c-14.3,7.2-23.8,3.6-31,7.2c-7.2,3.6-20.3,6-25,7.2c-4.8,1.2-11.9,6-15.5,6
		c-3.6,0-15.5,1.2-19.1,4.8c-3.6,3.6-10.7,11.9-9.5,17.9c1.2,6,6,19.1,14.3,23.8s2.4,11.9,6,14.3c3.6,2.4,9.5,8.3,16.7,9.5
		c7.2,1.2,41.7,4.8,54.8-8.3c13.1-13.1,52.4-50.1,62-65.5c9.5-15.5,27.4-4.8,39.3-1.2s26.2,1.2,40.5-1.2c14.3-2.4,29.8,8.3,50.1,4.8
		c20.3-3.6,23.8,7.1,23.8,7.1s1.2,23.8,3.6,32.2c2.4,8.3-8.3,19.1-8.3,28.6s6,31-4.8,48.9c-10.7,17.9-21.5,27.4-20.3,36.9s6,6,6,6
		s0,7.2,13.1,6c0,0,3.6,2.4,9.5,2.4c6,0,14.3-4.8,14.3-4.8s3.6,4.8,9.5,0c6-4.8,14.3-11.9,23.8-13.1c9.5-1.2,6-34.6,9.5-40.5
		c3.6-6,2.4-20.3,9.5-28.6s-9.5-19.1-4.8-44.1c4.8-25,14.3-41.7,28.6-46.5c14.3-4.8,64.4-33.4,71.5-38.1
		c7.2-4.8,51.2-35.8,57.2-44.1s97.7-100.1,50.1-191.9S757.2,405,707.1,352.6c0,0-35.6-32.8-54.8-45.3
		c-20.3-13.1-34.8-38.4-38.1-47.7c-4.8-13.1-8.3-17.9-14.3-25s-2.4-6-10.7-19.1c-6.8-10.7-9.5-16.7-19.1-26.2
		c-8.3-8.3-23.8-27.4-42.9-27.4c-19.1,0-44.1-6-72.7-8.3c-27.3-2.3-31-4.8-51.2-4.8s-20.3,0-20.3,0s-14.3-14.3-29.8-9.5
		c-15.5,4.8-11.9,27.4-11.9,27.4s-33.4,27.4-40.5,54.8s-1.2,48.9-9.5,57.2s-41.7,32.2-36.9,47.7
		C259.1,341.9,274.6,359.7,308.5,356.8z"/>
	<g>
		<path class="st2" d="M367.5,772c-1.2-23.8,7.1-146.6,16.7-154.9c9.5-8.3,17.9-13.1-3.6-32.2c-21.5-19.1-10.7-45.3-38.1-17.9
			c-5.2,5.2-9.2,10.3-12.5,15c0,0.4,0,0.8,0,1.1c0,19.1,0,52.4-1.2,63.2c-1.2,10.7-3.6,28.6-1.2,32.2c0,0-22,16.1-29.8,16.7
			c-7.1,0.5-23.8,9.5-35.8,10.7c-11.9,1.2-47.1,12.5-50.6,22c-3.6,9.5-6,13.1,1.2,16.7s20.3,0,22.6,2.4c2.4,2.4,13.1,3.6,19.1-1.2
			c6-4.8,31-14.3,44.1-14.3s15.5-10.7,26.2-9.5s3.6,47.7-19.1,52.4c-14.3,7.2-23.8,3.6-31,7.2c-7.2,3.6-20.3,6-25,7.2
			c-4.8,1.2-11.9,6-15.5,6c-3.6,0-15.5,1.2-19.1,4.8c-3.6,3.6-10.7,11.9-9.5,17.9c1.2,6,6,19.1,14.3,23.8s2.4,11.9,6,14.3
			c3.6,2.4,9.5,8.3,16.7,9.5c7.2,1.2,41.7,4.8,54.8-8.3c13.1-13.1,52.4-50.1,62-65.5c1.8-2.9,3.9-4.9,6.2-6.2
			C366.9,780.7,367.7,776.4,367.5,772z"/>
		<path class="st2" d="M781,509.9c-47.7-91.8-23.8-104.9-73.9-157.3c0,0-35.6-32.8-54.8-45.3c-20.3-13.1-34.8-38.4-38.1-47.7
			c-4.8-13.1-8.3-17.9-14.3-25s-2.4-6-10.7-19.1c-6.8-10.7-9.5-16.7-19.1-26.2c-8.3-8.3-23.8-27.4-42.9-27.4
			c-19.1,0-44.1-6-72.7-8.3c-27.3-2.3-31-4.8-51.2-4.8s-20.3,0-20.3,0s-14.3-14.3-29.8-9.5c-15.5,4.8-11.9,27.4-11.9,27.4
			s-33.4,27.4-40.5,54.8s-1.2,48.9-9.5,57.2s-41.7,32.2-36.9,47.7c1,3.3,2.5,6.7,4.6,10c33.3-13.7,77-32.4,88.4-41
			c19.1-14.3,73.9-69.1,97.7-36.9s47.7,20.3,42.9,59.6c-4.8,39.3-34.6,42.9-38.1,64.4c-3.6,21.5-23.8,38.1-3.6,56
			c20.3,17.9,66.7-1.2,83.4,4.8c16.7,6-17.9,31-6,51.2c11.9,20.3,71.5-17.9,73.9,3.6c2.4,21.5,3.6,39.3-21.5,53.6
			c-25,14.3-46.5,73.9-46.5,106.1c0,32.2-3.6,107.3-3.6,107.3s-11.9,6-10.7,34.6l-2.1,6.6c0.5,7.5,1.6,20.9,3.2,26.7
			c2.4,8.3-8.3,19.1-8.3,28.6s6,31-4.8,48.9c-10.7,17.9-21.5,27.4-20.3,36.9s6,6,6,6s0,7.2,13.1,6c0,0,3.6,2.4,9.5,2.4
			c6,0,14.3-4.8,14.3-4.8s3.6,4.8,9.5,0c6-4.8,14.3-11.9,23.8-13.1c9.5-1.2,6-34.6,9.5-40.5c3.6-6,2.4-20.3,9.5-28.6
			s-9.5-19.1-4.8-44.1c4.8-25,14.3-41.7,28.6-46.5c14.3-4.8,64.4-33.4,71.5-38.1c7.2-4.8,51.2-35.8,57.2-44.1S828.7,601.6,781,509.9
			z"/>
		<path class="st3" d="M524.7,710.2c0,0,5.7-20.6,4.9-52.6c-0.8-32.2,21.5-91.8,46.5-106.1c25-14.3,23.8-32.2,21.5-53.6
			c-2.4-21.5-62,16.7-73.9-3.6c-11.9-20.3,22.6-45.3,6-51.2c-16.7-6-63.2,13.1-83.4-4.8c-20.3-17.9,0-34.6,3.6-56
			c3.6-21.5,33.4-25,38.1-64.4c4.8-39.3-19.1-27.4-42.9-59.6s-78.7,22.6-97.7,36.9c-11.4,8.5-55,27.3-88.4,41
			c7.6,12.2,22.9,22.7,49.6,20.4c0,0,20.3,6,15.5,27.4c-4.8,21.5-4.8,36.9-2.4,46.5c2.4,9.5,3.6,41.7,0,58.4
			c-3.5,16.4,7.9,72.9,8.3,93c3.3-4.6,7.3-9.7,12.5-15c27.4-27.4,16.1-0.5,38.1,17.9c23.2,19.4,29.8,33.4,32.2,60.6
			c1.3,14.6-18.2,70.1-22.6,95c-0.8,4.3,62.6-23.8,82.4-29.3C483,708.3,523.4,710.1,524.7,710.2z"/>
	</g>
	<path d="M268.6,307.3c0,0-9.5,1.2-10.7,8.3c-1.2,7.2-4.8,7.2-2.4,13.1c2.4,6,7.1,10.7,14.3,10.7c7.1,0,8.3,4.8,15.5,2.4
		c7.1-2.4,39.3-19.1,16.7-28.6C292.4,307.3,268.6,307.3,268.6,307.3z"/>
	<path d="M301.2,227.6c2.2,0.9,12.7,5.2,12.7,10.6c0,0-1.2,8.3-10.7,10.7c-6,2.4-6-1.2-6-1.2s2-16.7,3.2-19.8
		C300.5,227.6,300.9,227.5,301.2,227.6z"/>
	<path class="st4" d="M480.4,186.5c-0.5-0.4-0.6-1.1-0.2-1.7c3.2-4.5,18-23.8,32.7-21.7c16.7,2.4,23.8,8.3,28.6,20.3
		c4.6,11.6,8.1,36.7,0.7,55.6c-0.3,0.8-1.4,1-2,0.5L480.4,186.5z"/>
	<path d="M534.3,943.6c0,0-3.6,7.2-1.2,10.7c0,0,6,0,9.5-4.8C542.7,949.6,540.3,941.3,534.3,943.6z"/>
	<path d="M484.3,940.1c0,0-3.6,7.2-1.2,10.7c0,0,6,0,9.5-4.8C492.6,946,490.2,937.7,484.3,940.1z"/>
	<path d="M491.4,946c0,0-3.6,7.1-1.2,10.7c0,0,6,0,9.5-4.8C499.8,952,497.4,943.6,491.4,946z"/>
	<path d="M508.1,950.8c0,0-3.6,4.8-3.6,9.5c0,0,7.1,1.2,9.5,0C514.1,960.3,514.1,952,508.1,950.8z"/>
	<path d="M272.2,851.9c0,0-8.3,4.8-9.5,9.5c0,0,7.2,2.4,10.7,1.2C276.9,861.4,273.4,851.9,272.2,851.9z"/>
	<path d="M236.4,845.9c0,0-8.3,2.4-9.5,7.2c0,0,3.6,1.2,8.3,0C235.2,853.1,240,848.3,236.4,845.9z"/>
	<path class="st4" d="M695.8,377.4c-6.8,10-40.3,58.2-70.6,73.3c-0.4,0.2-0.1,0.7,0.3,0.6c15.9-5.7,56.3-24.7,71-73.6
		C696.5,377.3,696,377.1,695.8,377.4z"/>
	<path class="st4" d="M723.2,400.4c0-0.1-0.2-0.2-0.2,0c-2.8,6.5-25.5,59.7-36.7,70.8c-9.7,9.7-5.2,27.3-3.2,33.5
		c0.2,0.6,1,0.5,1.1-0.1c0.8-6,3-21.7,6.9-27.4C695.8,470,721.5,423.3,723.2,400.4z"/>
	<g>
		<path class="st4" d="M357.8,369.9c13.1-3.6,17.9-17.9,22.6-22.6c4.8-4.8,15.5-1.2,28.6-10.7c13.1-9.5-7.2-19.1-11.9-21.5
			s-15.5,6-21.5,14.3s-35.8,32.2-57.2,22.6c-17.5-7.8-38.2-2.9-45.2-0.8c8.5,5.1,20.2,8.1,35.7,6.7c0,0,11.1,3.3,14.9,13.7
			c1,0.2,2,0.4,2.9,0.6C350.6,377.1,344.7,373.5,357.8,369.9z"/>
		<path class="st4" d="M786.5,522.4c-1.5-3.7-3.2-7.5-5.1-11.2c-5.8-11.2-10.6-21.3-14.6-30.4c-9.2,18.3-21.1,45.3-24.6,68.1
			c-0.3,2,2.1,3.4,3.7,2.1C752.8,545.3,767.6,533.7,786.5,522.4z"/>
		<path class="st4" d="M706.5,642.6c1-1.9-0.9-3.9-2.8-3.1c-11.6,5.3-37.8,15.8-43.3,5.7c-5.5-10-3.2-45.6-2.6-54.9
			c0-0.1-0.2-0.1-0.2,0c-1.6,9.1-8.9,43.6-27.6,59.1c-2.6,2.2-4.1,5.5-4,8.9c0.3,20.9,0,92.1-19.2,120.4c-1.6,2.3-2.9,4.5-4.1,6.5
			c14.4-4.8,64.3-33.4,71.4-38.1c2.7-1.8,10.7-7.3,19.8-14l-36.6-50.1c-1.9-2.6-0.6-6.3,2.6-7.1
			C671.4,672.9,694.6,664.3,706.5,642.6z"/>
	</g>
	<path class="st5" d="M212.6,822.1"/>
	<path d="M246,736.3c0,0-8.3,4.8-8.3,7.2s9.5-1.2,9.5-1.2S248.3,738.7,246,736.3z"/>
	<path d="M218.5,735.1c0,0-9.5,2.4-9.5,6c0,3.6,9.5,1.2,9.5,1.2S220.9,735.1,218.5,735.1z"/>
	<path d="M216.2,801.8c0,0-7.2,3.6-8.3,7.1c-1.2,3.6,8.3,0,8.3,0S218.5,803,216.2,801.8z"/>
	<g>
		<path class="st4" d="M341.9,773.8c16.7-22.6-11.9-143.5-12.8-130.5c4.5,22-0.7,67.7,1.5,83.4c2.4,16.7-11.9,48.9-16.7,53.6
			c-4.8,4.8-14.3,8.3-20.3,19.1c-6,10.7-13.1,13.1-22.6,16.7c-9.5,3.6-14.3,11.9-25,15.5c-7.4,2.5-16.9,9.4-22.2,13.5
			c0.1,0.3,0.2,0.5,0.3,0.8c16.9-8.5,41.7-9.7,55.9-18.4C295.4,817.9,325.2,796.5,341.9,773.8z"/>
	</g>
	<path d="M306.8,358.2c7.4-0.5,14.8-1.1,22.2-1.8c3.7-0.4,7.4-0.8,11-1.3c0.9-0.1,1.8-0.3,2.7-0.4c0.9-0.1,1.8-0.3,2.7-0.5
		c0.9-0.2,1.8-0.4,2.7-0.6c0.8-0.3,1.7-0.6,2.5-1c3.3-1.6,6.4-3.6,9.5-5.6l9.3-6.1c3.1-2,6.2-4,9.5-5.8c1.7-0.9,3.3-1.8,5.2-2.2
		c0.5-0.1,1,0,1.5,0l1.4,0.1l2.8,0.2c0.2,0,0.3,0.2,0.3,0.4c0,0.2-0.2,0.3-0.4,0.3l-2.8-0.2l-1.4-0.1c-0.5,0-0.9-0.1-1.3,0
		c-1.7,0.3-3.4,1.3-5,2.1c-3.2,1.8-6.3,3.8-9.4,5.9l-9.3,6.1c-3.1,2-6.2,4-9.6,5.7c-0.8,0.4-1.7,0.8-2.6,1.1
		c-0.9,0.3-1.8,0.5-2.7,0.7c-0.9,0.2-1.8,0.4-2.8,0.5c-0.9,0.2-1.8,0.3-2.8,0.4c-3.7,0.6-7.4,1-11.1,1.4c-7.4,0.8-14.8,1.4-22.2,2
		c-0.4,0-0.8-0.3-0.8-0.7C306.1,358.6,306.4,358.2,306.8,358.2L306.8,358.2z"/>
	<g>
		<path class="st6" d="M421.1,371.9c0-0.2,0.1-0.4,0.1-0.6l0.1-0.2c0.7-2.1,0.6-3.5-1.2-5.2c-1.8-1.7-4.4-3.4-6.5-5.7
			c-2.1-2.3-3.7-5.1-4.4-8c-0.7-2.9-1-6-0.2-9.1c0.4-1.6,1.2-3,2.1-4.4c0.9-1.3,2-2.5,3-3.5c2.1-2.1,3.9-3.9,4.9-5.9
			c0.2-0.5,0.4-1,0.6-1.5c0.1-0.5,0.3-1,0.3-1.5l0.1-1.6l-0.1-1.7c-0.3-2.4-0.8-4.9-1.9-7c-1-2.1-2.5-4-4.5-6.1
			c-1.9-2.1-4.1-4.9-5-8.1c-0.2-0.8-0.5-1.6-0.6-2.4l-0.2-1.2c0-0.4,0-0.8-0.1-1.3c-0.1-1.6,0.2-3.6,1.2-5.4c1-1.9,2.6-3.1,4-4
			c1.4-0.9,2.8-1.5,3.8-2.2c2.2-1.3,3.1-2.4,3.4-4.4c0.3-2-0.4-4.3-1.4-6.5c-2.2-4.4-6.2-8.4-10.3-11.8l-0.1-0.1
			c-0.9-0.7-1-1.9-0.4-2.8c0,0,0,0,0,0c-0.9-0.6-2.2-0.5-3,0.3c-0.8,0.9-0.7,2.2,0.2,3l0.1,0.1c4.1,3.3,8,7.4,10.3,11.8
			c1.1,2.2,1.7,4.5,1.4,6.5c-0.2,2.1-1.1,3.2-3.4,4.4c-1.1,0.6-2.4,1.2-3.8,2.2c-1.4,0.9-3,2.2-4,4c-0.9,1.8-1.3,3.8-1.2,5.4
			c0,0.4,0,0.9,0.1,1.3l0.2,1.2c0.1,0.8,0.3,1.6,0.6,2.4c0.9,3.2,3.1,6,5,8.1c1.9,2.1,3.5,3.9,4.5,6.1c1,2.1,1.6,4.5,1.9,7l0.1,1.7
			l-0.1,1.6c-0.1,0.5-0.2,1-0.3,1.5c-0.2,0.5-0.4,1-0.6,1.5c-1,1.9-2.9,3.8-4.9,5.9c-1,1-2.1,2.2-3,3.5c-0.9,1.4-1.7,2.8-2.1,4.4
			c-0.8,3.2-0.5,6.3,0.2,9.1c0.8,2.9,2.3,5.8,4.4,8c2.1,2.3,4.7,3.9,6.5,5.7c1.8,1.8,2,3.2,1.2,5.2l-0.1,0.2
			c-0.1,0.2-0.1,0.4-0.1,0.6c-0.1,1.5,1,2.8,2.6,2.9c0.9,0.1,1.6-0.2,2.2-0.8C421.7,374.1,421,373.1,421.1,371.9z"/>
		<g>
			<path class="st7" d="M424.5,248.7c-0.2,0.1-0.3,0.2-0.5,0.2c0,0.1,0,0.2,0,0.3l0,0.4c0,0.6-0.3,1.1-0.8,1.4
				c-0.5,0.5-1.1,0.9-1.5,1.5l-1.6,2.3c-0.6,0.9-1.6,1.5-2.7,1.8l-2.5,0.5c-1.5,0.3-2.8,1.1-3.7,2.3l-1.1,1.5c-0.2,0-0.3,0-0.5,0.1
				c-0.5-0.4-1-0.8-1.6-1.1c-0.6,0.8-0.5,1.8,0.1,2.5c-0.4,0.2-0.9,0.3-1.4,0.3l-6.2,0.2c-0.3,0-0.7,0-1-0.1l0.1,0
				c1,0.4,2,0.6,3,0.5c0,0,3.6-0.1,5.4-0.2c0.6,0,1.3,0.2,1.7,0.6c3.6,3.1,7,6.8,9,10.7c1.1,2.2,1.7,4.5,1.4,6.5
				c-0.2,2.1-1.1,3.2-3.4,4.4c-1.1,0.6-2.4,1.2-3.8,2.2c-1.4,0.9-3,2.2-4,4c-0.9,1.8-1.3,3.8-1.2,5.4c0,0.4,0,0.9,0.1,1.3l0.2,1.2
				c0.1,0.8,0.3,1.6,0.6,2.4c0.9,3.2,3.1,6,5,8.1c1.9,2.1,3.5,3.9,4.5,6.1c1,2.1,1.6,4.5,1.9,7l0.1,1.7l-0.1,1.6
				c-0.1,0.5-0.2,1-0.3,1.5c-0.2,0.5-0.4,1-0.6,1.5c-1,1.9-2.9,3.8-4.9,5.9c-1,1-2.1,2.2-3,3.5c-0.9,1.4-1.7,2.8-2.1,4.4
				c-0.8,3.2-0.5,6.3,0.2,9.1c0.8,2.9,2.3,5.8,4.4,8c2.1,2.3,4.7,3.9,6.5,5.7c1.8,1.8,2,3.2,1.2,5.2l-0.1,0.2
				c-0.1,0.2-0.1,0.4-0.1,0.6c-0.1,1.2,0.6,2.2,1.6,2.6c0.5-0.4,0.8-1,0.9-1.7c0.1-0.9,0.2-1.7,0.2-2.6l-0.1-1.4
				c-0.1-0.5-0.3-0.9-0.4-1.4c-0.7-1.8-2-3.2-3.2-4.2c-2.5-2-4.8-3.3-6.6-5.1c-1.8-1.8-3-3.9-3.7-6.4l-0.4-1.8
				c-0.1-0.6-0.1-1.2-0.1-1.8c-0.1-0.6,0.1-1.2,0.1-1.8c0-0.6,0.3-1.1,0.4-1.7c0.7-2.2,2.5-3.9,4.6-5.6c2.1-1.7,4.7-3.6,6.6-6.4
				c0.4-0.7,0.9-1.5,1.2-2.3c0.3-0.8,0.6-1.6,0.8-2.5c0.1-0.8,0.2-1.7,0.3-2.5l-0.1-2.4c-0.3-3-1.1-6-2.5-8.9
				c-0.7-1.4-1.6-2.8-2.5-4c-1-1.2-2-2.4-2.9-3.4c-1.9-2.1-3.2-3.8-3.8-5.9c-0.2-0.5-0.3-1.1-0.4-1.6l-0.1-0.9l0-0.8
				c-0.1-1.1,0.2-1.9,0.4-2.6c0.6-1.3,2.7-2.4,5.5-4.1c1.3-0.9,2.9-1.9,4-3.5c0.3-0.4,0.5-0.8,0.7-1.2l0.3-0.6l0.2-0.7
				c0.1-0.4,0.3-0.9,0.4-1.3l0.1-1.3c0.3-3.5-0.8-6.7-2.3-9.4c-1.5-2.7-3.5-5-5.6-7.1c-1-1-2.1-2-3.1-2.9c-0.2-0.2-0.2-0.5-0.1-0.7
				c0.6-0.7,1.7-2.1,1.7-2.1c0.9-1.2,2.2-2,3.7-2.3l2.5-0.5c1.1-0.2,2.1-0.8,2.7-1.8l1.6-2.3c0.4-0.6,0.9-1,1.5-1.5
				c0.5-0.4,0.8-0.9,0.8-1.4l0-0.4C426.2,248.9,425.3,248.3,424.5,248.7z"/>
			<path class="st6" d="M424,248.9c-5,2.3-8.7,4.6-16.3,6.4c-7.6,1.8-14.7,2.1-20.9,2.6c-0.8,0.1-1.2,1-0.7,1.6l1.1,1.2
				c0.1,0.1,0.2,0.1,0.2,0.1c0.8,0.5,1.8,0.6,2.8,0.4l1.2-0.3c0.8-0.2,1.6-0.2,2.4-0.1c0.7,0.1,1.4,0.2,2.1,0.5l3.4,1.4
				c0.3,0,0.7,0.1,1,0.1l6.2-0.2c1.4,0,2.6-0.7,3.4-1.7l1.1-1.5c0.9-1.2,2.2-2,3.7-2.3l2.5-0.5c1.1-0.2,2.1-0.8,2.7-1.8l1.6-2.3
				c0.4-0.6,0.9-1,1.5-1.5c0.5-0.4,0.8-0.9,0.8-1.4l0-0.4C424,249.1,424,249,424,248.9z"/>
		</g>
	</g>
	<path d="M369.3,252c-0.5-0.3-0.4-1,0.1-1.2c4.3-1.8,19.1-8,26.2-9c7.5-1.1,28.6,0.8,34.4,2.9c0.6,0.2,0.6,1,0,1.2
		c-1.3,0.6-3.2,1.6-4.7,3.1c-2.4,2.4-9.5,8.3-13.1,9.5c-3.6,1.2-22.6,1.2-28.6,0C378.9,257.5,371.9,253.5,369.3,252z"/>
	<g>
		<path class="st8" d="M393.3,249.2c0,0-4.3,0.9-5,2c-0.7,1,4.9,1.6,4.9,1.6L393.3,249.2z"/>
		<ellipse cx="400.5" cy="250.6" rx="7.7" ry="7.2"/>
	</g>
</g>
</svg>
