<?xml version="1.0" encoding="iso-8859-1"?>
<!-- Uploaded to: SVG Repo, www.svgrepo.com, Generator: SVG Repo Mixer Tools -->
<svg height="800px" width="800px" version="1.1" id="Layer_1" xmlns="http://www.w3.org/2000/svg" xmlns:xlink="http://www.w3.org/1999/xlink" 
	 viewBox="0 0 512 512" xml:space="preserve">
<g transform="translate(1 1)">
	<path style="fill:#FFE100;" d="M476.867,195.267L280.6,316.44c-17.067,9.387-37.547,9.387-54.613,0L7.533,195.267V39.107
		c0-17.067,14.507-31.573,31.573-31.573h406.187c17.067,0,31.573,14.507,31.573,31.573V195.267z"/>
	<path style="fill:#FFA800;" d="M470.893,7.533h-25.6c17.067,0,31.573,14.507,31.573,31.573v156.16L280.6,316.44
		c-8.533,4.267-17.067,6.827-26.453,6.827c9.387,0,19.627-2.56,28.16-6.827l220.16-121.173V39.107
		C502.467,22.04,487.96,7.533,470.893,7.533"/>
	<path style="fill:#63D3FD;" d="M272.067,144.067c0,23.893-13.653,42.667-29.867,42.667s-29.867-18.773-29.867-42.667
		S225.987,101.4,242.2,101.4S272.067,120.173,272.067,144.067"/>
	<path style="fill:#3DB9F9;" d="M255,101.4c-2.56,0-5.12,0-7.68,0.853c13.653,3.413,24.747,21.333,24.747,41.813
		s-10.24,38.4-24.747,41.813c2.56,0.853,5.12,0.853,7.68,0.853c23.893,0,42.667-18.773,42.667-42.667S278.893,101.4,255,101.4"/>
	<path style="fill:#FFE100;" d="M280.6,316.44c-17.067,9.387-37.547,9.387-54.613,0L22.893,203.8h-6.827v267.093
		c0,17.067,14.507,31.573,31.573,31.573h389.12c17.067,0,31.573-14.507,31.573-31.573V203.8h-6.827L280.6,316.44z"/>
	<path style="fill:#FFA800;" d="M487.107,203.8l-18.773,10.24v256.853c0,17.067-14.507,31.573-31.573,31.573h25.6
		c17.067,0,31.573-14.507,31.573-31.573V203.8H487.107z"/>
	<g>
		<path style="fill:#FFFFFF;" d="M39.107,7.533h25.6c-17.067,0-31.573,14.507-31.573,31.573v156.16L229.4,316.44
			c8.533,4.267,17.067,6.827,26.453,6.827c-9.387,0-19.627-2.56-28.16-6.827L7.533,195.267V39.107
			C7.533,22.04,22.04,7.533,39.107,7.533"/>
		<path style="fill:#FFFFFF;" d="M22.893,203.8l18.773,10.24v256.853c0,17.067,14.507,31.573,31.573,31.573h-25.6
			c-17.067,0-31.573-14.507-31.573-31.573V203.8H22.893z"/>
	</g>
	<path d="M255,332.653c-11.093,0-21.333-2.56-31.573-8.533L3.267,202.947C0.707,201.24-1,198.68-1,195.267V39.107
		C-1,16.92,16.92-1,39.107-1h431.787C493.08-1,511,16.92,511,39.107v156.16c0,3.413-1.707,5.973-4.267,7.68L286.573,324.12
		C276.333,329.24,266.093,332.653,255,332.653z M16.067,190.147L231.96,308.76c14.507,7.68,31.573,7.68,46.08,0l215.893-119.467
		V39.107c0-12.8-10.24-23.04-23.04-23.04H39.107c-12.8,0-23.04,10.24-23.04,23.04V190.147z M502.467,195.267L502.467,195.267
		L502.467,195.267z"/>
	<path d="M462.36,511H47.64c-22.187,0-40.107-17.92-40.107-40.107V203.8c0-5.12,3.413-8.533,8.533-8.533h6.827
		c1.707,0,2.56,0,4.267,0.853l204.8,112.64c14.507,7.68,31.573,7.68,46.08,0l204.8-112.64c1.707-0.853,2.56-0.853,4.267-0.853h6.827
		c5.12,0,8.533,3.413,8.533,8.533v267.093C502.467,493.08,484.547,511,462.36,511z M24.6,214.04v256.853
		c0,12.8,10.24,23.04,23.04,23.04h414.72c12.8,0,23.04-10.24,23.04-23.04V214.04L286.573,324.12l0,0
		c-19.627,11.093-43.52,11.093-63.147,0L24.6,214.04z M282.307,316.44L282.307,316.44L282.307,316.44z"/>
	<path d="M459.8,304.493c-5.12,0-8.533-3.413-8.533-8.533v-38.4c0-5.12,3.413-8.533,8.533-8.533s8.533,3.413,8.533,8.533v38.4
		C468.333,301.08,464.92,304.493,459.8,304.493z"/>
	<path d="M459.8,400.067c-5.12,0-8.533-3.413-8.533-8.533V334.36c0-5.12,3.413-8.533,8.533-8.533s8.533,3.413,8.533,8.533v57.173
		C468.333,396.653,464.92,400.067,459.8,400.067z"/>
	<path d="M459.8,476.867h-38.4c-5.12,0-8.533-3.413-8.533-8.533c0-5.12,3.413-8.533,8.533-8.533h29.867v-29.867
		c0-5.12,3.413-8.533,8.533-8.533s8.533,3.413,8.533,8.533v38.4C468.333,473.453,464.92,476.867,459.8,476.867z"/>
	<path d="M365.933,476.867h-83.627c-5.12,0-8.533-3.413-8.533-8.533c0-5.12,3.413-8.533,8.533-8.533h83.627
		c5.12,0,8.533,3.413,8.533,8.533C374.467,473.453,371.053,476.867,365.933,476.867z M227.693,476.867h-83.627
		c-5.12,0-8.533-3.413-8.533-8.533c0-5.12,3.413-8.533,8.533-8.533h83.627c5.12,0,8.533,3.413,8.533,8.533
		C236.227,473.453,231.96,476.867,227.693,476.867z"/>
	<path d="M88.6,476.867H50.2c-5.12,0-8.533-3.413-8.533-8.533v-38.4c0-5.12,3.413-8.533,8.533-8.533s8.533,3.413,8.533,8.533V459.8
		H88.6c5.12,0,8.533,3.413,8.533,8.533C97.133,473.453,93.72,476.867,88.6,476.867z"/>
	<path d="M50.2,400.067c-5.12,0-8.533-3.413-8.533-8.533V334.36c0-5.12,3.413-8.533,8.533-8.533s8.533,3.413,8.533,8.533v57.173
		C58.733,396.653,55.32,400.067,50.2,400.067z"/>
	<path d="M50.2,304.493c-5.12,0-8.533-3.413-8.533-8.533v-38.4c0-5.12,3.413-8.533,8.533-8.533s8.533,3.413,8.533,8.533v38.4
		C58.733,301.08,55.32,304.493,50.2,304.493z"/>
	<path d="M255,195.267c-28.16,0-51.2-23.04-51.2-51.2s23.04-51.2,51.2-51.2s51.2,23.04,51.2,51.2S283.16,195.267,255,195.267z
		 M255,109.933c-18.773,0-34.133,15.36-34.133,34.133S236.227,178.2,255,178.2s34.133-15.36,34.133-34.133
		S273.773,109.933,255,109.933z"/>
</g>
</svg>